<?xml version="1.0" standalone="no"?>
<!DOCTYPE svg PUBLIC "-//W3C//DTD SVG 1.1//EN" "http://www.w3.org/Graphics/SVG/1.1/DTD/svg11.dtd">
<svg width="100%" height="100%" viewBox="0 0 442 399" version="1.1" xmlns="http://www.w3.org/2000/svg" xmlns:xlink="http://www.w3.org/1999/xlink" xml:space="preserve" style="fill-rule:evenodd;clip-rule:evenodd;stroke-linejoin:round;stroke-miterlimit:1.41421;">
    <g>
        <g>
            <path d="M359.049,31.988C362.771,56.306 370.292,118.909 373.555,225.723C387.878,225.723 398.571,225.723 398.571,225.723C398.571,225.723 395.378,166.563 380.162,33.974L359.049,31.988Z" style="fill:white;fill-rule:nonzero;"/>
            <g>
                <path d="M406.384,1.426L349.433,7.162C345.06,7.162 341.496,10.719 341.496,15.106C341.496,19.488 345.059,23.041 349.433,23.041L406.384,28.711L406.384,1.426Z" style="fill:white;fill-rule:nonzero;"/>
                <path d="M421.792,0C421.237,0.043 420.682,0.103 420.143,0.2L414.081,0.773L414.081,29.435L420.143,30.003C420.682,30.101 421.238,30.166 421.792,30.206L421.792,0Z" style="fill:white;fill-rule:nonzero;"/>
                <path d="M429.427,0.313L429.427,29.892C436.214,28.389 441.298,22.343 441.298,15.106C441.298,7.86 436.214,1.812 429.427,0.313Z" style="fill:white;fill-rule:nonzero;"/>
            </g>
            <path d="M347.436,137.087L360.197,137.087C360.197,137.087 366.368,211.229 365.824,233.342C362.015,233.342 356.607,233.342 356.607,233.342C356.607,233.342 352.443,170.638 347.436,137.087Z" style="fill:white;fill-rule:nonzero;"/>
        </g>
        <g>
            <path d="M219.511,122.744C212.364,122.744 206.573,128.534 206.573,135.678C206.573,142.629 212.378,148.601 218.937,148.601C221.696,148.601 224.583,146.952 224.583,142.7C224.583,138.438 221.012,137.445 219.289,137.445C217.56,137.445 216.274,138.327 216.274,138.327L216.274,129.504C217.748,128.588 218.572,128.221 221.203,128.221C223.638,128.221 231.271,129.129 232.342,137.344C232.407,136.795 232.453,136.245 232.453,135.679C232.455,128.534 226.66,122.744 219.511,122.744Z" style="fill:white;fill-rule:nonzero;"/>
            <rect x="101.676" y="354.665" width="152.646" height="8.699" style="fill:white;"/>
            <path d="M270.417,352.295C266.893,352.295 264.037,355.152 264.037,358.672C264.037,362.197 266.892,365.053 270.417,365.053C273.938,365.053 276.803,362.198 276.803,358.672C276.802,355.153 273.937,352.295 270.417,352.295Z" style="fill:white;fill-rule:nonzero;"/>
            <path d="M327.555,58.818L242.349,28.358L108.929,28.358L23.362,58.818C23.362,58.818 -6.364,223.777 1.247,321.313C4.275,321.768 7.47,322.198 10.778,322.618C15.659,334.411 44.255,377.21 56.396,389.35C69.698,402.655 283.862,401.506 296.021,389.35C307.112,378.252 336.831,333.551 341.917,322.381C344.475,322.031 346.94,321.678 349.306,321.313C356.914,219.067 327.555,58.818 327.555,58.818ZM296.314,206.18L296.314,282.938C296.314,285.252 294.419,287.147 292.106,287.147L189.294,287.147C186.981,287.147 185.087,285.252 185.087,282.938L185.087,206.18C185.087,203.866 186.981,201.971 189.294,201.971L292.106,201.971C294.419,201.971 296.314,203.866 296.314,206.18ZM167.473,123.036L167.473,113.631L172.764,113.631L172.764,97.752L183.351,97.752L183.351,113.631L191.582,113.631L191.582,123.036L183.351,123.036L183.351,143.622C183.351,148.268 190.993,147.733 190.993,147.733L190.993,157.14C172.764,157.517 172.764,148.124 172.764,147.733C172.764,147.342 172.764,143.622 172.764,143.622L172.764,123.036L167.473,123.036L167.473,123.036ZM196.065,135.678C196.065,123.056 206.301,112.82 218.923,112.82C231.549,112.82 241.784,123.056 241.784,135.678C241.784,148.306 231.549,158.545 218.923,158.545C206.301,158.545 196.065,148.306 196.065,135.678ZM118.757,42.81L232.176,42.81L248.53,50.616L102.379,50.616L118.757,42.81ZM134.792,249.651C134.792,246.321 136.715,243.467 139.493,242.051L139.493,197.384C139.493,195.254 141.218,193.53 143.347,193.53C145.478,193.53 147.202,195.255 147.202,197.384L147.202,242.051C149.978,243.467 151.901,246.321 151.901,249.651C151.901,252.981 149.978,255.835 147.202,257.249L147.202,291.733C147.202,293.864 145.477,295.588 143.347,295.588C141.217,295.588 139.493,293.863 139.493,291.733L139.493,257.249C136.715,255.834 134.792,252.981 134.792,249.651ZM104.031,239.063C104.031,235.731 105.955,232.879 108.732,231.463L108.732,197.384C108.732,195.254 110.456,193.53 112.586,193.53C114.716,193.53 116.44,195.255 116.44,197.384L116.44,231.463C119.218,232.879 121.14,235.731 121.14,239.063C121.14,242.393 119.218,245.245 116.44,246.661L116.44,291.733C116.44,293.864 114.715,295.588 112.586,295.588C110.455,295.588 108.732,293.863 108.732,291.733L108.732,246.661C105.955,245.245 104.031,242.393 104.031,239.063ZM118.667,157.141L118.667,108.929L105.144,108.929L105.144,97.752L144.539,97.752L144.539,108.929L131.018,108.929L131.018,157.141L118.667,157.141L118.667,157.141ZM150.419,157.141L150.419,114.219L161.589,114.219L161.589,157.141L150.419,157.141ZM150.419,108.34L150.419,97.752L161.589,97.752L161.589,108.34L150.419,108.34L150.419,108.34ZM75.526,264.602L75.526,197.385C75.526,195.255 77.251,193.531 79.38,193.531C81.509,193.531 83.234,195.256 83.234,197.385L83.234,264.598C86.014,266.012 87.937,268.868 87.937,272.198C87.937,275.528 86.014,278.384 83.234,279.796L83.234,291.734C83.234,293.865 81.509,295.589 79.38,295.589C77.251,295.589 75.526,293.864 75.526,291.734L75.526,279.795C72.748,278.383 70.828,275.527 70.828,272.199C70.828,268.871 72.748,266.014 75.526,264.602ZM50.882,291.733C50.882,293.864 49.157,295.588 47.027,295.588C44.897,295.588 43.172,293.863 43.172,291.733L43.172,235.895C40.395,234.479 38.473,231.627 38.473,228.297C38.473,224.965 40.395,222.113 43.172,220.697L43.172,197.384C43.172,195.254 44.897,193.53 47.027,193.53C49.157,193.53 50.882,195.255 50.882,197.384L50.882,220.697C53.659,222.113 55.581,224.965 55.581,228.297C55.581,231.627 53.659,234.479 50.882,235.895L50.882,291.733ZM279.329,380.764L74.482,380.764L52.367,337.26L301.267,337.26L279.329,380.764Z" style="fill:white;fill-rule:nonzero;"/>
            <g>
                <path d="M214.711,231.004C211.218,231.004 209.006,235.483 209.006,244.5C208.948,253.701 211.155,258.115 214.711,258.115L214.774,258.115C218.396,258.115 220.353,253.578 220.353,244.5C220.354,235.667 218.455,231.004 214.711,231.004Z" style="fill:white;fill-rule:nonzero;"/>
                <path d="M233.305,208.161L196.178,208.161C193.538,208.161 191.406,210.3 191.406,212.938L191.406,276.172C191.406,278.811 193.539,280.959 196.178,280.959L233.305,280.959C235.947,280.959 238.077,278.811 238.077,276.172L238.077,212.938C238.078,210.299 235.947,208.161 233.305,208.161ZM214.711,265.17L214.649,265.17C204.344,265.17 199.804,255.908 199.741,244.619C199.741,233.027 204.592,223.945 214.894,223.945C225.507,223.945 229.74,233.455 229.74,244.375C229.74,256.645 224.773,265.17 214.711,265.17Z" style="fill:white;fill-rule:nonzero;"/>
            </g>
            <path d="M285.214,208.161L248.255,208.161C245.615,208.161 243.478,210.3 243.478,212.938L243.478,276.172C243.478,278.811 245.616,280.959 248.255,280.959L285.214,280.959C287.859,280.959 289.994,278.811 289.994,276.172L289.994,212.938C289.995,210.299 287.859,208.161 285.214,208.161ZM280.65,264.51L252.823,264.51L252.823,258.959L257.837,254.428C266.467,246.699 270.632,242.293 270.692,237.709C270.692,234.512 268.82,231.975 264.294,231.975C260.912,231.975 257.956,233.666 255.905,235.172L253.306,228.656C256.206,226.42 260.851,224.607 266.105,224.607C275.037,224.607 279.865,229.8 279.865,236.921C279.865,243.505 275.16,248.755 269.427,253.823L265.803,256.843L265.803,256.968L280.651,256.968L280.651,264.51L280.65,264.51Z" style="fill:white;fill-rule:nonzero;"/>
        </g>
    </g>
</svg>
